<mxfile host="app.diagrams.net" agent="Mozilla/5.0 (Macintosh; Intel Mac OS X 10_15_7) AppleWebKit/537.36 (KHTML, like Gecko) Chrome/138.0.0.0 Safari/537.36" version="28.0.7">
  <diagram name="Page-1" id="6iwwGXpmAHg7_HQ9iEz2">
    <mxGraphModel dx="528" dy="322" grid="1" gridSize="10" guides="1" tooltips="1" connect="1" arrows="1" fold="1" page="1" pageScale="1" pageWidth="827" pageHeight="1169" math="0" shadow="0">
      <root>
        <mxCell id="0" />
        <mxCell id="1" parent="0" />
        <mxCell id="oNLKm26VDQYCc33M_KwG-1" value="" style="rounded=1;whiteSpace=wrap;html=1;" vertex="1" parent="1">
          <mxGeometry x="145" y="150" width="350" height="250" as="geometry" />
        </mxCell>
        <mxCell id="oNLKm26VDQYCc33M_KwG-3" value="Agent" style="rounded=0;whiteSpace=wrap;html=1;" vertex="1" parent="1">
          <mxGeometry x="290" y="140" width="60" height="20" as="geometry" />
        </mxCell>
        <mxCell id="oNLKm26VDQYCc33M_KwG-6" value="Reasoning Engine" style="swimlane;whiteSpace=wrap;html=1;" vertex="1" collapsed="1" parent="1">
          <mxGeometry x="30" y="420" width="140" height="20" as="geometry">
            <mxRectangle x="250" y="230" width="140" height="200" as="alternateBounds" />
          </mxGeometry>
        </mxCell>
        <mxCell id="oNLKm26VDQYCc33M_KwG-7" value="Atlas Reasoning Engine" style="rounded=1;whiteSpace=wrap;html=1;" vertex="1" parent="1">
          <mxGeometry x="180" y="230" width="120" height="50" as="geometry" />
        </mxCell>
        <mxCell id="oNLKm26VDQYCc33M_KwG-8" value="" style="rounded=1;whiteSpace=wrap;html=1;" vertex="1" parent="1">
          <mxGeometry x="330" y="180" width="120" height="190" as="geometry" />
        </mxCell>
        <mxCell id="oNLKm26VDQYCc33M_KwG-9" value="Topics" style="rounded=0;whiteSpace=wrap;html=1;" vertex="1" parent="1">
          <mxGeometry x="360" y="170" width="60" height="20" as="geometry" />
        </mxCell>
      </root>
    </mxGraphModel>
  </diagram>
</mxfile>
